<svg width="37" height="37" viewBox="0 0 37 37" fill="none" xmlns="http://www.w3.org/2000/svg">
<path d="M20.6451 25.4158C21.0105 24.1979 21.7412 23.1017 22.7156 22.2492C24.5424 20.7267 25.6995 18.4127 25.6995 15.8551C25.6995 11.1052 21.7413 7.20787 16.8696 7.45148C12.5459 7.63416 9.01396 11.2879 8.89219 15.6115C8.83127 18.2909 9.98831 20.6659 11.8761 22.2492C12.9113 23.1017 13.6421 24.1978 14.0074 25.4158H20.6451V25.4158Z" fill="#FFD15C"/>
<path d="M16.5041 25.5375H17.0522L14.6163 16.4641C14.6773 16.4641 14.7381 16.4641 14.799 16.4641C15.1035 16.4641 15.408 16.3423 15.6515 16.0987C15.7733 15.9769 15.8951 15.916 16.0778 15.916C16.2605 15.916 16.3823 15.9769 16.5041 16.0987C16.9304 16.5858 17.6612 16.5858 18.0874 16.0987C18.2092 15.9769 18.331 15.916 18.5137 15.916C18.6355 15.916 18.8181 15.9769 18.94 16.0987C19.1836 16.3423 19.4271 16.4641 19.7925 16.4641C19.8534 16.4641 19.9143 16.4641 19.9752 16.4641L17.6002 25.5375H18.1483L20.645 16.0378C20.645 15.916 20.645 15.7942 20.5232 15.7333C20.4015 15.6724 20.2796 15.7333 20.2188 15.7942C20.097 15.916 19.9752 15.9769 19.8534 15.9769C19.6707 15.9769 19.549 15.916 19.3663 15.7942C19.1227 15.5506 18.8791 15.4289 18.5746 15.4289C18.2701 15.4289 18.0265 15.5506 17.7829 15.7942C17.5393 16.0378 17.174 16.0378 16.9304 15.7942C16.7477 15.5506 16.4433 15.4289 16.1388 15.4289V15.4289C15.8343 15.4289 15.5298 15.5506 15.3471 15.7942C15.2253 15.916 15.0426 15.9769 14.8599 15.9769C14.7382 15.9769 14.5555 15.916 14.4946 15.7942C14.4336 15.7333 14.3119 15.6725 14.1901 15.7333C14.0683 15.7942 14.0074 15.916 14.0683 16.0378L16.5041 25.5375Z" fill="white"/>
<path d="M15.4082 31.0182C15.7127 31.7489 16.4435 32.297 17.296 32.297C18.1485 32.297 18.8793 31.7489 19.1838 31.0182H15.4082Z" fill="#344A5E"/>
<path d="M19.5491 31.0791H15.1037C14.4947 31.0791 14.0076 30.5919 14.0076 29.983V25.3549H20.6452V29.983C20.6452 30.5919 20.158 31.0791 19.5491 31.0791Z" fill="#344A5E"/>
<path d="M20.5842 27.6689H14.0075C13.6421 27.6689 13.3376 27.3644 13.3376 26.999V26.999C13.3376 26.6337 13.6421 26.3292 14.0075 26.3292H20.5842C20.9496 26.3292 21.2541 26.6337 21.2541 26.999V26.999C21.2541 27.3644 20.9496 27.6689 20.5842 27.6689Z" fill="#415A6B"/>
<path d="M20.5842 29.8003H14.0075C13.6421 29.8003 13.3376 29.4958 13.3376 29.1304V29.1304C13.3376 28.7651 13.6421 28.4606 14.0075 28.4606H20.5842C20.9496 28.4606 21.2541 28.7651 21.2541 29.1304V29.1304C21.2541 29.4958 20.9496 29.8003 20.5842 29.8003Z" fill="#415A6B"/>
<path d="M17.2957 3.06699C16.9913 3.06699 16.6868 3.31059 16.6868 3.67596V5.74644C16.6868 6.0509 16.9304 6.35542 17.2957 6.35542C17.6611 6.35542 17.9047 6.11181 17.9047 5.74644V3.67596C17.9047 3.31059 17.6002 3.06699 17.2957 3.06699Z" fill="#FFD15C"/>
<path d="M9.13579 6.78164C8.89219 6.53804 8.52681 6.53804 8.28327 6.78164C8.03972 7.02524 8.03966 7.39062 8.28327 7.63416L9.74476 9.09566C9.98837 9.33926 10.3537 9.33926 10.5973 9.09566C10.8408 8.85206 10.8409 8.48668 10.5973 8.24314L9.13579 6.78164Z" fill="#FFD15C"/>
<path d="M7.24806 15.1853H5.17758C4.87312 15.1853 4.5686 15.4289 4.5686 15.7942V15.7942C4.5686 16.0987 4.81221 16.4032 5.17758 16.4032H7.24806C7.55252 16.4032 7.85703 16.1596 7.85703 15.7942V15.7942C7.85703 15.4897 7.55252 15.1853 7.24806 15.1853Z" fill="#FFD15C"/>
<path d="M9.74479 22.4928L8.28329 23.9543C8.03969 24.1979 8.03969 24.5632 8.28329 24.8068C8.52689 25.0503 8.89226 25.0504 9.13581 24.8068L10.5973 23.3453C10.8409 23.1017 10.8409 22.7363 10.5973 22.4928C10.3537 22.2492 9.98839 22.2492 9.74479 22.4928Z" fill="#FFD15C"/>
<path d="M24.847 22.4928C24.6034 22.2492 24.2381 22.2492 23.9945 22.4928C23.7509 22.7364 23.7509 23.1017 23.9945 23.3453L25.456 24.8068C25.6996 25.0504 26.0649 25.0504 26.3085 24.8068C26.552 24.5632 26.5521 24.1978 26.3085 23.9543L24.847 22.4928Z" fill="#FFD15C"/>
<path d="M29.4141 15.1853H27.3436C27.0391 15.1853 26.7346 15.4289 26.7346 15.7942V15.7942C26.7346 16.0987 26.9782 16.4032 27.3436 16.4032H29.4141C29.7185 16.4032 30.0231 16.1596 30.0231 15.7942V15.7942C30.023 15.4897 29.7794 15.1853 29.4141 15.1853Z" fill="#FFD15C"/>
<path d="M25.456 6.78165L23.9945 8.24315C23.7509 8.48675 23.7509 8.85213 23.9945 9.09567C24.2381 9.33927 24.6034 9.33927 24.847 9.09567L26.3085 7.63417C26.5521 7.39057 26.5521 7.02519 26.3085 6.78165C26.0649 6.5381 25.6996 6.53805 25.456 6.78165Z" fill="#FFD15C"/>
</svg>
