<svg width="37" height="37" viewBox="0 0 37 37" fill="none" xmlns="http://www.w3.org/2000/svg">
<path d="M31.2743 11.736C30.8318 12.4314 29.8045 12.6684 29.0935 12.2101C26.1225 10.3296 21.7555 9.31812 18.0418 9.31812H18.026C14.2965 9.31812 9.96657 10.3295 6.99556 12.2101C6.25275 12.6843 5.27298 12.4629 4.81477 11.736C4.34065 10.9932 4.56186 10.0134 5.30468 9.55523C8.84458 7.2954 13.7277 6.11017 17.9313 6.11017H18.0419C22.2771 6.12597 27.3393 7.34274 30.8002 9.55523C31.5271 10.0135 31.7484 10.9933 31.2743 11.736Z" fill="#50B9FF"/>
<path d="M27.7449 17.0775C27.3024 17.7886 26.2594 17.994 25.5641 17.5516C23.5887 16.2874 20.4598 15.6236 18.0419 15.6236C15.624 15.6236 12.495 16.2874 10.5197 17.5516C9.77699 18.0257 8.79722 17.8044 8.3389 17.0775C7.86479 16.3346 8.0861 15.3549 8.81301 14.8967C11.2941 13.3164 15.0078 12.4788 18.042 12.4788C21.0762 12.4788 24.79 13.3164 27.271 14.8967C27.9977 15.3549 28.219 16.3347 27.7449 17.0775Z" fill="#50B9FF"/>
<path d="M24.5842 22.4031C24.1101 23.1616 23.1303 23.3512 22.4034 22.893C21.4236 22.2767 19.3693 21.929 18.0417 21.929C16.7142 21.929 14.6599 22.2767 13.6801 22.893C12.9532 23.3512 11.9576 23.1458 11.4993 22.4031C11.0252 21.6761 11.2465 20.6963 11.9734 20.2223C13.4432 19.2899 16.1139 18.7841 18.0418 18.7841C19.9697 18.7841 22.6404 19.2899 24.1102 20.2223C24.837 20.6964 25.0582 21.6603 24.5842 22.4031Z" fill="#50B9FF"/>
<path d="M18.0417 31.395C16.2986 31.395 14.8811 29.9775 14.8811 28.2344C14.8811 26.4913 16.2986 25.0738 18.0417 25.0738C19.7848 25.0738 21.2023 26.4913 21.2023 28.2344C21.2023 29.9775 19.7848 31.395 18.0417 31.395Z" fill="#50B9FF"/>
<path d="M21.2024 28.2344C21.2024 26.4913 19.7849 25.0738 18.0417 25.0738V31.395C19.7849 31.395 21.2024 29.9775 21.2024 28.2344Z" fill="#4596E6"/>
<path d="M24.5842 22.403C24.1101 23.1616 23.1303 23.3512 22.4034 22.893C21.4236 22.2766 19.3693 21.929 18.0417 21.929V18.7841C19.9696 18.7841 22.6403 19.2898 24.1101 20.2222C24.837 20.6964 25.0583 21.6603 24.5842 22.403Z" fill="#4596E6"/>
<path d="M27.7448 17.0775C27.3022 17.7886 26.2593 17.994 25.564 17.5516C23.5886 16.2874 20.4597 15.6236 18.0417 15.6236V12.4788C21.0759 12.4788 24.7897 13.3164 27.2707 14.8967C27.9976 15.3549 28.2188 16.3347 27.7448 17.0775Z" fill="#4596E6"/>
<path d="M31.2742 11.736C30.8317 12.4314 29.8044 12.6684 29.0934 12.2101C26.1224 10.3296 21.7555 9.31812 18.0417 9.31812V6.11017C22.277 6.12597 27.3391 7.34274 30.8 9.55523C31.527 10.0135 31.7483 10.9933 31.2742 11.736Z" fill="#4596E6"/>
</svg>
