<svg width="37" height="37" viewBox="0 0 37 37" fill="none" xmlns="http://www.w3.org/2000/svg">
<rect x="3.06714" y="10.5847" width="29.9261" height="17.2044" fill="#44C4A1"/>
<path fill-rule="evenodd" clip-rule="evenodd" d="M4.15552 26.735V11.638H31.9052V26.735H4.15552ZM29.1847 25.6816C29.1847 24.809 29.9155 24.1016 30.817 24.1016V14.2714C29.9155 14.2714 29.1847 13.564 29.1847 12.6914H6.87609C6.87609 13.5639 6.14522 14.2714 5.24376 14.2714V24.1016C6.14522 24.1016 6.87609 24.8089 6.87609 25.6816H29.1847Z" fill="#31978C"/>
<ellipse cx="18.0301" cy="19.1865" rx="4.37044" ry="5.33059" fill="#31978C"/>
<ellipse cx="27.6065" cy="19.1866" rx="1.13873" ry="1.10226" fill="#31978C"/>
<ellipse cx="8.45514" cy="19.1866" rx="1.13873" ry="1.10226" fill="#31978C"/>
<path fill-rule="evenodd" clip-rule="evenodd" d="M17.849 22.8142V22.1753C17.0946 22.0934 16.4174 21.7758 15.8181 21.2209L16.4207 20.4596C16.8829 20.8855 17.3585 21.1398 17.8489 21.2209V19.523C17.2269 19.3656 16.7714 19.1591 16.4825 18.902C16.1936 18.6456 16.0492 18.2646 16.0492 17.7595C16.0492 17.2553 16.2151 16.8422 16.5484 16.5217C16.8816 16.2005 17.3148 16.0253 17.849 15.9961V15.5588H18.377V16.0054C18.9823 16.0516 19.5547 16.271 20.0941 16.6613L19.5573 17.4668C19.1939 17.1926 18.8009 17.0231 18.377 16.959V18.6042H18.4018C19.0347 18.7616 19.4995 18.9753 19.7965 19.2431C20.0941 19.5116 20.2426 19.9012 20.2426 20.4118C20.2426 20.9225 20.0719 21.3378 19.7306 21.659C19.3894 21.9795 18.9386 22.1547 18.3769 22.1838V22.8142H17.849ZM17.2666 17.1649C17.1261 17.2959 17.0563 17.4597 17.0563 17.6549C17.0563 17.8507 17.1113 18.0046 17.2215 18.1186C17.331 18.2325 17.5406 18.3422 17.849 18.4469V16.9327C17.6011 16.9562 17.407 17.0338 17.2666 17.1649ZM19.2355 20.4945C19.2355 20.6989 19.1583 20.8685 19.0045 21.0024C18.8499 21.1369 18.6411 21.2182 18.3769 21.2473V19.6719C18.7069 19.7773 18.9326 19.8898 19.0542 20.0087C19.1751 20.1284 19.2355 20.2908 19.2355 20.4945Z" fill="#44C4A1"/>
</svg>
