<svg width="37" height="37" viewBox="0 0 37 37" fill="none" xmlns="http://www.w3.org/2000/svg">
<path d="M23.8517 7.89965H27.1865C27.6474 7.89965 28.0203 7.52675 28.0203 7.06593C28.0203 6.6051 27.6474 6.23221 27.1865 6.23221H23.8517C23.3908 6.23221 22.9624 6.6051 22.9624 7.06593C22.9624 7.52675 23.3908 7.89965 23.8517 7.89965Z" fill="#0D70B2"/>
<path d="M17.0707 7.89965H20.4612C20.922 7.89965 21.2949 7.52675 21.2949 7.06593C21.2949 6.6051 20.922 6.23221 20.4612 6.23221H17.0707C16.6099 6.23221 16.237 6.6051 16.237 7.06593C16.237 7.52675 16.6099 7.89965 17.0707 7.89965Z" fill="#095C92"/>
<path d="M21.2281 8.8V12.0682C21.2281 12.5352 21.5949 12.9019 22.0618 12.9019H22.1284C22.5453 12.8685 22.8955 12.5185 22.8955 12.0682V8.8C22.8955 8.36657 22.5453 7.99968 22.1284 7.96628H22.0618C21.5949 7.96628 21.2281 8.3499 21.2281 8.8Z" fill="#0D70B2"/>
<path d="M21.2281 8.8V12.0682C21.2281 12.5352 21.5948 12.9019 22.0618 12.9019H22.1284V7.96628H22.0618C21.5948 7.96628 21.2281 8.3499 21.2281 8.8Z" fill="#095C92"/>
<path d="M9.56724 13.4855C10.3176 13.102 11.168 12.9019 12.0684 12.9019H18.7381C19.2051 12.9019 19.6274 13.2687 19.6274 13.7357V18.738C19.6274 19.2049 19.2051 19.5717 18.7381 19.5717H13.7358C13.2689 19.5717 12.9021 19.9385 12.9021 20.4054V23.7403C12.9021 24.2072 12.5353 24.574 12.0684 24.574H7.06608C6.59915 24.574 6.23237 24.2072 6.23237 23.7403V18.738C6.23237 16.4202 7.59966 14.4027 9.56724 13.4855Z" fill="#A8AFF1"/>
<path d="M6.58257 28.1645L8.81688 23.3901C8.95027 23.09 9.25041 22.9066 9.56723 22.9066C9.88404 22.9066 10.1842 23.09 10.3176 23.3901L12.5853 28.1979C12.8021 28.648 12.9021 29.1317 12.9021 29.6319C12.9021 31.466 11.4014 33.0223 9.56723 33.0223C7.7331 33.0223 6.23235 31.466 6.23235 29.6319C6.23235 29.115 6.34907 28.6147 6.58257 28.1645Z" fill="#1BD9DE"/>
<path d="M25.519 19.5717H32.1887C32.6496 19.5717 33.0225 19.1988 33.0225 18.738V13.7357C33.0225 13.2748 32.6496 12.9019 32.1887 12.9019H25.519C25.0582 12.9019 24.6853 13.2748 24.6853 13.7357V18.738C24.6853 19.1988 25.0582 19.5717 25.519 19.5717Z" fill="#C5C9F7"/>
<path d="M15.4031 9.56707C16.7823 9.56707 17.9043 8.44511 17.9043 7.06591C17.9043 5.68672 16.7823 4.56476 15.4031 4.56476C14.0239 4.56476 12.902 5.68672 12.902 7.06591C12.902 8.44511 14.0239 9.56707 15.4031 9.56707Z" fill="#1689FC"/>
<path d="M28.8538 9.56707C30.233 9.56707 31.355 8.44511 31.355 7.06591C31.355 5.68672 30.233 4.56476 28.8538 4.56476C27.4746 4.56476 26.3527 5.68672 26.3527 7.06591C26.3527 8.44511 27.4746 9.56707 28.8538 9.56707Z" fill="#18A7FC"/>
<path d="M20.4612 11.2345H23.8516C25.2357 11.2345 26.3528 12.3516 26.3528 13.7357V18.738C26.3528 20.122 25.2357 21.2391 23.8516 21.2391H20.4612C19.0771 21.2391 17.9044 20.122 17.9044 18.738V13.7357C17.9044 12.3516 19.0771 11.2345 20.4612 11.2345Z" fill="#E1E4FB"/>
<path d="M17.9042 13.7357V18.738C17.9042 20.122 19.077 21.2391 20.461 21.2391H22.1284V11.2345H20.461C19.077 11.2345 17.9042 12.3516 17.9042 13.7357Z" fill="#C5C9F7"/>
<path d="M4.56496 23.7403C4.56496 24.2072 4.93174 24.574 5.39868 24.574H13.7359C14.2028 24.574 14.5696 24.2072 14.5696 23.7403C14.5696 23.2733 14.2028 22.9066 13.7359 22.9066H5.39868C4.93174 22.9066 4.56496 23.2733 4.56496 23.7403Z" fill="#E1E4FB"/>
<path d="M4.56483 23.7403C4.56483 24.2072 4.93161 24.574 5.39855 24.574H9.56714V22.9066H5.39855C4.93161 22.9066 4.56483 23.2733 4.56483 23.7403Z" fill="#C5C9F7"/>
<path d="M22.1286 4.56476C23.5126 4.56476 24.6853 5.68189 24.6853 7.06591V8.73335C24.6853 9.20029 24.3185 9.56707 23.8516 9.56707H20.4611C19.9942 9.56707 19.6274 9.20029 19.6274 8.73335V7.06591C19.6274 5.68189 20.7445 4.56476 22.1286 4.56476Z" fill="#18A7FC"/>
<path d="M19.6273 7.06591V8.73335C19.6273 9.20029 19.994 9.56707 20.461 9.56707H22.1284V4.56476C20.7444 4.56476 19.6273 5.68189 19.6273 7.06591Z" fill="#1689FC"/>
</svg>
