<svg width="21" height="23" viewBox="0 0 21 23" fill="none" xmlns="http://www.w3.org/2000/svg">
<path d="M9.12499 2.16203V17.5208L2.41499 10.8108C1.87874 10.2745 0.99874 10.2745 0.46249 10.8108C-0.0737598 11.347 -0.0737598 12.2133 0.46249 12.7495L9.52374 21.8108C10.06 22.347 10.9262 22.347 11.4625 21.8108L20.5375 12.7633C20.795 12.5064 20.9397 12.1576 20.9397 11.7939C20.9397 11.4302 20.795 11.0814 20.5375 10.8245C20.0012 10.2883 19.135 10.2883 18.5987 10.8245L11.875 17.5208V2.16203C11.875 1.40578 11.2562 0.787029 10.5 0.787029C9.74374 0.787029 9.12499 1.40578 9.12499 2.16203Z" fill="#45C232"/>
</svg>
