<svg width="24" height="23" viewBox="0 0 24 23" fill="none" xmlns="http://www.w3.org/2000/svg">
<path d="M10.5126 20.838V5.47922L3.18705 12.1892C2.6016 12.7255 1.64087 12.7255 1.05542 12.1892C0.469971 11.653 0.469971 10.7867 1.05542 10.2505L10.948 1.18922C11.5334 0.652971 12.4791 0.652971 13.0646 1.18922L22.9722 10.2367C23.2533 10.4936 23.4112 10.8424 23.4112 11.2061C23.4112 11.5698 23.2533 11.9186 22.9722 12.1755C22.3867 12.7117 21.441 12.7117 20.8555 12.1755L13.5149 5.47922V20.838C13.5149 21.5942 12.8394 22.213 12.0138 22.213C11.1882 22.213 10.5126 21.5942 10.5126 20.838Z" fill="#FB6969"/>
</svg>
