<svg width="24" height="24" viewBox="0 0 24 24" fill="none" xmlns="http://www.w3.org/2000/svg">
<path d="M10.5469 22.2164V5.48632L3.23778 12.7954C2.65365 13.3795 1.69508 13.3795 1.11095 12.7954C0.526819 12.2113 0.526819 11.2677 1.11095 10.6836L10.9812 0.81328C11.5654 0.229151 12.509 0.229151 13.0931 0.81328L22.9784 10.6686C23.2588 10.9484 23.4164 11.3283 23.4164 11.7245C23.4164 12.1207 23.2588 12.5006 22.9784 12.7804C22.3942 13.3646 21.4506 13.3646 20.8665 12.7804L13.5424 5.48632V22.2164C13.5424 23.0402 12.8684 23.7141 12.0447 23.7141C11.2209 23.7141 10.5469 23.0402 10.5469 22.2164Z" fill="#608DE2"/>
</svg>
