<svg width="14" height="25" viewBox="0 0 14 25" fill="none" xmlns="http://www.w3.org/2000/svg">
<path d="M8.15367 11.8318H5.76044C4.397 11.8318 3.28781 10.7226 3.28781 9.3592C3.28781 7.99576 4.39707 6.88658 5.76044 6.88658H10.5468C11.1638 6.88658 11.664 6.38639 11.664 5.76943C11.664 5.15246 11.1638 4.65228 10.5468 4.65228H8.07421V2.17965C8.07421 1.56269 7.57402 1.0625 6.95706 1.0625C6.34009 1.0625 5.83991 1.56269 5.83991 2.17965V4.65228H5.76052C3.16508 4.65228 1.05359 6.76384 1.05359 9.3592C1.05359 11.9546 3.16515 14.0661 5.76052 14.0661H8.15375C9.51712 14.0661 10.6263 15.1753 10.6263 16.5387C10.6263 17.9021 9.51712 19.0113 8.15375 19.0113H3.36736C2.75039 19.0113 2.25021 19.5115 2.25021 20.1285C2.25021 20.7454 2.75039 21.2456 3.36736 21.2456H5.83991V23.7183C5.83991 24.3353 6.34009 24.8355 6.95706 24.8355C7.57402 24.8355 8.07421 24.3353 8.07421 23.7183V21.2456H8.15367C10.749 21.2456 12.8605 19.134 12.8605 16.5387C12.8605 13.9433 10.749 11.8318 8.15367 11.8318Z" fill="#7373FF" stroke="#786EFF" stroke-width="0.3"/>
</svg>
